<?xml version="1.0" encoding="UTF-8"?> <svg xmlns="http://www.w3.org/2000/svg" xmlns:xlink="http://www.w3.org/1999/xlink" width="81px" height="81px" viewBox="0 0 81 81"> <!-- Generator: Sketch 57.1 (83088) - https://sketch.com --> <title>Fill 19</title> <desc>Created with Sketch.</desc> <g id="Page-1" stroke="none" stroke-width="1" fill="none" fill-rule="evenodd"> <g id="Fill-19" transform="translate(0.000000, 0.000000)" fill="#6236FF"> <path d="M4.09412515,56.515 C4.87212515,55.738 5.90612515,55.31 7.00912515,55.31 C8.11012515,55.31 9.14612515,55.738 9.92512515,56.517 L24.3201252,70.914 C25.9271252,72.52 25.9271252,75.135 24.3201252,76.742 C22.7661252,78.301 20.0481252,78.303 18.4881252,76.743 L4.09312515,62.347 C2.48712515,60.74 2.48712515,58.124 4.09412515,56.515 Z M10.1281252,44.349 C11.2351252,43.242 12.7061252,42.633 14.2721252,42.633 C15.8371252,42.633 17.3081252,43.242 18.4141252,44.349 L30.6351252,56.571 C30.6371252,56.572 30.6371252,56.574 30.6381252,56.575 C30.6401252,56.575 30.6411252,56.576 30.6431252,56.577 L36.4891252,62.425 C38.7741252,64.708 38.7741252,68.424 36.4891252,70.708 C35.3831252,71.815 33.9111252,72.424 32.3481252,72.424 C30.7821252,72.424 29.3101252,71.815 28.2031252,70.708 L10.1281252,52.632 C7.84412515,50.349 7.84412515,46.633 10.1281252,44.349 Z M49.1711252,27.335 L53.5011252,31.666 L31.6601252,53.508 L27.3301252,49.177 L49.1711252,27.335 Z M42.6261252,14.277 C42.6261252,12.713 43.2371252,11.241 44.3431252,10.134 C45.4491252,9.03 46.9201252,8.419 48.4861252,8.419 C50.0501252,8.419 51.5211252,9.03 52.6271252,10.134 L67.5711252,25.079 C67.5721252,25.08 67.5731252,25.081 67.5741252,25.082 L70.7031252,28.211 C72.9871252,30.494 72.9871252,34.211 70.7031252,36.494 C69.5971252,37.601 68.1261252,38.211 66.5611252,38.211 C64.9951252,38.211 63.5241252,37.601 62.4171252,36.494 L50.1941252,24.271 L50.1931252,24.269 L50.1921252,24.269 L44.3431252,18.419 C43.2371252,17.313 42.6261252,15.842 42.6261252,14.277 Z M56.5121252,4.098 C57.2891252,3.321 58.3251252,2.891 59.4261252,2.891 C60.5291252,2.891 61.5631252,3.321 62.3421252,4.099 L64.8601252,6.617 L64.8611252,6.617 L74.2201252,15.978 L76.7381252,18.495 C78.3461252,20.103 78.3461252,22.718 76.7391252,24.325 C76.1601252,24.903 75.2571252,25.025 74.6011252,25.025 C72.8641252,25.025 70.7711252,24.189 69.6171252,23.037 L67.7481252,21.169 L56.5121252,9.93 C54.9041252,8.323 54.9041252,5.705 56.5121252,4.098 Z M74.2201252,6.617 C75.8801252,8.277 76.1511252,10.785 75.0781252,12.748 L68.1011252,5.771 C70.0551252,4.747 72.6201252,5.015 74.2201252,6.617 Z M6.61112515,74.227 C4.95012515,72.567 4.68012515,70.058 5.75312515,68.094 L12.7421252,75.084 C10.7791252,76.157 8.27212515,75.885 6.61112515,74.227 Z M3.64612515,65.988 C2.71712515,67.325 2.20612515,68.905 2.20612515,70.569 C2.20612515,72.722 3.04412515,74.747 4.56812515,76.27 C6.14012515,77.841 8.20412515,78.627 10.2691252,78.627 C11.8741252,78.627 13.4731252,78.137 14.8461252,77.188 L16.4451252,78.786 C17.7711252,80.112 19.5321252,80.842 21.4041252,80.842 C23.2791252,80.842 25.0401252,80.111 26.3641252,78.785 C27.5971252,77.552 28.2431252,75.969 28.3641252,74.354 C29.5831252,74.979 30.9391252,75.315 32.3481252,75.315 C34.6831252,75.315 36.8811252,74.405 38.5331252,72.751 C41.9451252,69.342 41.9451252,63.79 38.5331252,60.381 L33.7041252,55.552 L55.5451252,33.71 L60.3731252,38.538 C62.0261252,40.191 64.2241252,41.102 66.5611252,41.102 C68.8981252,41.102 71.0951252,40.191 72.7461252,38.538 C75.6351252,35.652 76.0501252,31.242 74.0481252,27.885 C74.2331252,27.897 74.4191252,27.915 74.6011252,27.915 C76.3261252,27.915 77.7731252,27.38 78.7831252,26.368 C81.5171252,23.634 81.5161252,19.186 78.7811252,16.451 L77.1831252,14.852 C79.3551252,11.711 79.0591252,7.368 76.2641252,4.574 C74.7411252,3.051 72.7171252,2.211 70.5621252,2.211 C68.8991252,2.211 67.3191252,2.722 65.9821252,3.652 L64.3861252,2.056 C63.0621252,0.731 61.3001252,0 59.4261252,0 C57.5531252,0 55.7921252,0.731 54.4681252,2.054 C53.2351252,3.288 52.5871252,4.872 52.4671252,6.489 C51.2481252,5.865 49.8941252,5.529 48.4861252,5.529 C46.1481252,5.529 43.9511252,6.438 42.2991252,8.091 C40.6471252,9.743 39.7361252,11.941 39.7361252,14.277 C39.7361252,16.614 40.6471252,18.812 42.2991252,20.463 L47.1271252,25.291 L25.2861252,47.134 L20.4581252,42.305 C18.8051252,40.653 16.6091252,39.742 14.2721252,39.742 C11.9351252,39.742 9.73712515,40.653 8.08412515,42.305 C5.33412515,45.054 4.84112515,49.178 6.52512515,52.467 C4.83512515,52.582 3.25812515,53.264 2.05112515,54.472 C-0.682874846,57.208 -0.683874846,61.657 2.04912515,64.391 L3.64612515,65.988 L3.64612515,65.988 Z" id="Fill-15"></path> </g> </g> </svg> 