<?xml version="1.0" encoding="UTF-8"?> <svg xmlns="http://www.w3.org/2000/svg" xmlns:xlink="http://www.w3.org/1999/xlink" width="82px" height="70px" viewBox="0 0 82 70"> <!-- Generator: Sketch 57.1 (83088) - https://sketch.com --> <title>video-call</title> <desc>Created with Sketch.</desc> <g id="Page-1" stroke="none" stroke-width="1" fill="none" fill-rule="evenodd"> <g id="video-call" fill="#6236FF" fill-rule="nonzero"> <path d="M48,35.5 C48,31.9159 45.0841,29 41.5,29 C37.9159,29 35,31.9159 35,35.5 C35,39.0841 37.9159,42 41.5,42 C45.0841,42 48,39.0841 48,35.5 Z M41.5,38.75 C39.70795,38.75 38.25,37.29205 38.25,35.5 C38.25,33.70795 39.70795,32.25 41.5,32.25 C43.29205,32.25 44.75,33.70795 44.75,35.5 C44.75,37.29205 43.29205,38.75 41.5,38.75 Z" id="Shape"></path> <path d="M11.2109375,70 L33.7929688,70 C34.6773516,70 35.3945312,69.28775 35.3945312,68.4090909 C35.3945312,67.5304318 34.6773516,66.8181818 33.7929688,66.8181818 L11.2109375,66.8181818 C7.34380469,66.8181818 4.10800781,64.0808636 3.36408203,60.4529545 L78.635918,60.4529545 C77.8919922,64.0808636 74.6561953,66.8181818 70.7890625,66.8181818 L48.2070312,66.8181818 C47.3226484,66.8181818 46.6054688,67.5304318 46.6054688,68.4090909 C46.6054688,69.28775 47.3226484,70 48.2070312,70 L70.7890625,70 C76.9707734,70 82,65.0042273 82,58.8636364 C82,57.9849773 81.2828203,57.2727273 80.3984375,57.2727273 L74.7929688,57.2727273 L74.7929688,15.9090909 C74.7929688,15.0304318 74.0757891,14.3181818 73.1914062,14.3181818 L61.8203125,14.3181818 L61.8203125,1.59090909 C61.8203125,1.00418182 61.4951953,0.465022727 60.9745273,0.188204545 C60.4536992,-0.0886136364 59.8215625,-0.0582272727 59.3303633,0.267272727 L47.40625,8.16375 L47.40625,1.59090909 C47.40625,0.71225 46.6890703,0 45.8046875,0 L21.78125,0 C20.8968672,0 20.1796875,0.71225 20.1796875,1.59090909 L20.1796875,14.3181818 L8.80859375,14.3181818 C7.92421094,14.3181818 7.20703125,15.0304318 7.20703125,15.9090909 L7.20703125,57.2727273 L1.6015625,57.2727273 C0.717179687,57.2727273 0,57.9849773 0,58.8636364 C0,65.0042273 5.02922656,70 11.2109375,70 Z M49.0078125,57.2727273 L32.9921875,57.2727273 L32.9921875,52.5 C32.9921875,48.1138636 36.5844922,44.5454545 41,44.5454545 C45.4155078,44.5454545 49.0078125,48.1138636 49.0078125,52.5 L49.0078125,57.2727273 Z M58.6171875,4.56352273 L58.6171875,17.7092045 L48.6918242,11.1363636 L58.6171875,4.56352273 Z M23.3828125,3.18181818 L44.203125,3.18181818 L44.203125,19.0909091 L23.3828125,19.0909091 L23.3828125,3.18181818 Z M10.4101562,17.5 L20.1796875,17.5 L20.1796875,20.6818182 C20.1796875,21.5604773 20.8968672,22.2727273 21.78125,22.2727273 L45.8046875,22.2727273 C46.6890703,22.2727273 47.40625,21.5604773 47.40625,20.6818182 L47.40625,14.1089773 L59.3303633,22.0054545 C59.8225234,22.3314318 60.4545,22.3608636 60.9745273,22.0845227 C61.4951953,21.8077045 61.8203125,21.2685455 61.8203125,20.6818182 L61.8203125,17.5 L71.5898438,17.5 L71.5898438,57.2727273 L52.2109375,57.2727273 L52.2109375,52.5 C52.2109375,46.3594091 47.1817109,41.3636364 41,41.3636364 C34.8182891,41.3636364 29.7890625,46.3594091 29.7890625,52.5 L29.7890625,57.2727273 L10.4101562,57.2727273 L10.4101562,17.5 Z" id="Shape"></path> <circle id="Oval" cx="41.5" cy="68.5" r="1.5"></circle> </g> </g> </svg> 