<?xml version="1.0" encoding="UTF-8"?> <svg xmlns="http://www.w3.org/2000/svg" xmlns:xlink="http://www.w3.org/1999/xlink" width="70px" height="90px" viewBox="0 0 70 90"> <!-- Generator: Sketch 57.1 (83088) - https://sketch.com --> <title>Group 2</title> <desc>Created with Sketch.</desc> <g id="Page-1" stroke="none" stroke-width="1" fill="none" fill-rule="evenodd"> <g id="Group-2" fill="#6236FF"> <g id="Group"> <g id="Group-34"> <path d="M3.334,16.274 C3.334,13.086 5.926,10.493 9.114,10.493 L20.323,10.493 C21.017,14.721 24.686,17.961 29.108,17.961 L42.115,17.961 C46.536,17.961 50.206,14.721 50.9,10.493 L60.692,10.493 C63.88,10.493 66.473,13.086 66.473,16.274 L66.473,80.348 C66.473,83.536 63.88,86.129 60.692,86.129 L9.114,86.129 C5.926,86.129 3.334,83.536 3.334,80.348 L3.334,16.274 Z M47.942,10.493 C47.291,13.114 44.935,15.07 42.115,15.07 L29.108,15.07 C26.288,15.07 23.932,13.114 23.28,10.493 L47.942,10.493 Z M29.108,3.025 L42.115,3.025 C44.935,3.025 47.291,4.981 47.942,7.603 L23.28,7.603 C23.932,4.981 26.288,3.025 29.108,3.025 Z M9.114,89.02 L60.692,89.02 C65.474,89.02 69.363,85.13 69.363,80.348 L69.363,16.274 C69.363,11.492 65.474,7.603 60.692,7.603 L50.9,7.603 C50.206,3.375 46.536,0.135 42.115,0.135 L29.108,0.135 C24.686,0.135 21.017,3.375 20.323,7.603 L9.114,7.603 C4.333,7.603 0.443,11.492 0.443,16.274 L0.443,80.348 C0.443,85.13 4.333,89.02 9.114,89.02 L9.114,89.02 Z" id="Fill-33"></path> </g> <path d="M17.581,80.465 L52.225,80.465 C55.698,80.465 58.524,77.432 58.524,73.705 L58.524,21.831 C58.524,18.103 55.698,15.07 52.225,15.07 C51.426,15.07 50.78,15.717 50.78,16.515 C50.78,17.313 51.426,17.961 52.225,17.961 C54.104,17.961 55.634,19.697 55.634,21.831 L55.634,73.705 C55.634,75.838 54.104,77.574 52.225,77.574 L17.581,77.574 C15.701,77.574 14.173,75.838 14.173,73.705 L14.173,21.831 C14.173,19.697 15.701,17.961 17.581,17.961 C18.38,17.961 19.026,17.313 19.026,16.515 C19.026,15.717 18.38,15.07 17.581,15.07 C14.107,15.07 11.282,18.103 11.282,21.831 L11.282,73.705 C11.282,77.432 14.107,80.465 17.581,80.465" id="Fill-35"></path> <path d="M18.446,30.438 L21.247,33.871 C21.501,34.182 21.875,34.374 22.277,34.399 C22.307,34.401 22.336,34.402 22.366,34.402 C22.737,34.402 23.096,34.259 23.365,34.001 L29.598,28.039 C30.174,27.487 30.195,26.573 29.643,25.996 C29.093,25.419 28.178,25.401 27.599,25.95 L22.497,30.831 L20.684,28.61 C20.181,27.992 19.27,27.899 18.652,28.404 C18.033,28.909 17.941,29.819 18.446,30.438" id="Fill-36"></path> <path d="M33.708,32.415 L49.531,32.415 C50.329,32.415 50.975,31.768 50.975,30.969 C50.975,30.171 50.329,29.524 49.531,29.524 L33.708,29.524 C32.909,29.524 32.263,30.171 32.263,30.969 C32.263,31.768 32.909,32.415 33.708,32.415" id="Fill-37"></path> <path d="M29.643,39.161 C29.093,38.585 28.178,38.565 27.599,39.116 L22.497,43.996 L20.684,41.775 C20.181,41.157 19.27,41.064 18.652,41.569 C18.033,42.074 17.941,42.984 18.446,43.603 L21.247,47.036 C21.501,47.348 21.875,47.54 22.277,47.565 C22.307,47.566 22.336,47.567 22.366,47.567 C22.737,47.567 23.096,47.425 23.365,47.167 L29.598,41.205 C30.174,40.653 30.195,39.738 29.643,39.161" id="Fill-38"></path> <path d="M50.239,41.696 L34.416,41.696 C33.617,41.696 32.971,42.343 32.971,43.141 C32.971,43.939 33.617,44.586 34.416,44.586 L50.239,44.586 C51.038,44.586 51.684,43.939 51.684,43.141 C51.684,42.343 51.038,41.696 50.239,41.696" id="Fill-39"></path> <path d="M27.599,52.282 L22.497,57.163 L20.684,54.942 C20.181,54.325 19.27,54.229 18.652,54.736 C18.033,55.241 17.941,56.151 18.446,56.77 L21.247,60.203 C21.501,60.514 21.875,60.707 22.277,60.731 C22.307,60.733 22.336,60.734 22.366,60.734 C22.737,60.734 23.096,60.591 23.365,60.333 L29.598,54.372 C30.174,53.819 30.195,52.905 29.643,52.328 C29.093,51.751 28.178,51.733 27.599,52.282" id="Fill-40"></path> <path d="M50.239,54.862 L34.416,54.862 C33.617,54.862 32.971,55.51 32.971,56.308 C32.971,57.106 33.617,57.753 34.416,57.753 L50.239,57.753 C51.038,57.753 51.684,57.106 51.684,56.308 C51.684,55.51 51.038,54.862 50.239,54.862" id="Fill-41"></path> </g> </g> </g> </svg> 