<?xml version="1.0" encoding="UTF-8"?> <svg xmlns="http://www.w3.org/2000/svg" xmlns:xlink="http://www.w3.org/1999/xlink" width="104px" height="113px" viewBox="0 0 104 113"> <!-- Generator: Sketch 57.1 (83088) - https://sketch.com --> <title>woman</title> <desc>Created with Sketch.</desc> <g id="Page-1" stroke="none" stroke-width="1" fill="none" fill-rule="evenodd"> <g id="woman" fill="#6236FF" fill-rule="nonzero"> <path d="M102.109091,24.4800293 L94.5454545,24.4800293 C93.5012,24.4800293 92.6545455,25.3233233 92.6545455,26.3634329 L92.6545455,28.2468366 C92.6545455,27.2067269 91.8078909,26.3634329 90.7636364,26.3634329 L85.0909091,26.3634329 C84.0934545,26.3613141 83.2659455,27.1311553 83.2,28.1225319 L83.0695273,30.1302402 L79.4181818,30.1302402 L79.4181818,26.3634329 C79.4181818,25.3233233 78.5715273,24.4800293 77.5272727,24.4800293 L69.9636364,24.4800293 C68.9193818,24.4800293 68.0727273,25.3233233 68.0727273,26.3634329 L68.0727273,37.6638547 C68.0727273,38.7039644 68.9193818,39.5472584 69.9636364,39.5472584 L77.5272727,39.5472584 C78.5715273,39.5472584 79.4181818,38.7039644 79.4181818,37.6638547 L79.4181818,33.8970475 L82.8218182,33.8970475 L81.7893818,49.3051726 C81.6201455,51.250964 79.9797818,52.7414425 78.0189091,52.7310838 L66.1818182,52.7310838 L66.1818182,51.9231036 C66.1789818,51.1977578 65.7582545,50.5385665 65.1002182,50.2280404 C62.5394545,49.0365521 59.8243455,48.2062066 57.0336,47.7607816 C56.7305818,47.7174633 56.4216545,47.7485395 56.1335273,47.851185 C55.0925818,47.535244 54.0258727,47.3108836 52.9454545,47.1806933 L52.9454545,42.0427682 C53.5061091,41.7571971 54.0492727,41.4381956 54.5716364,41.0878825 C60.9250909,36.6600006 66.1818182,32.2132846 66.1818182,22.6437108 L66.1818182,20.713222 C66.1726,14.9864979 63.7926545,9.51732915 59.6033455,5.59514109 C52.2323455,-1.23078452 41.0341455,-1.88432558 32.9131636,4.03756629 C24.7,2.56568635 16.8437455,8.00424976 15.366,16.1850489 C15.2083455,17.0580064 15.1284545,17.9429707 15.1272727,18.8298184 L15.1272727,47.0808729 C15.1272727,48.1209825 15.9739273,48.9642765 17.0181818,48.9642765 C24.2483091,48.9765186 31.2035455,46.2050902 36.4302545,41.2291378 C36.8786364,41.523655 37.3419091,41.7951006 37.8181818,42.0427682 L37.8181818,47.1806933 C36.7375273,47.3082939 35.6701091,47.5300647 34.6282182,47.8436514 C34.3408,47.7412413 34.0323455,47.7101651 33.7300364,47.753248 C30.9392909,48.1986729 28.2241818,49.0290185 25.6634182,50.2205067 C25.0053818,50.5310329 24.5846545,51.1902242 24.5818182,51.91557 L24.5818182,51.9777223 C17.4311091,59.978421 13.4046545,70.2719281 13.2363636,80.9821383 C13.2363636,86.1483144 13.4840727,92.0942197 15.0194909,96.0493673 L11.3454545,96.0493673 L11.3454545,92.2825601 C11.3454545,91.2424504 10.4988,90.3991564 9.45454545,90.3991564 L1.89090909,90.3991564 C0.846654545,90.3991564 0,91.2424504 0,92.2825601 L0,103.582982 C0,104.623091 0.846654545,105.466385 1.89090909,105.466385 L9.45454545,105.466385 C10.4988,105.466385 11.3454545,104.623091 11.3454545,103.582982 L11.3454545,99.8161746 L22.1557818,99.8161746 C20.0348909,103.890447 18.9218545,108.410616 18.9090909,113 L22.6909091,113 C22.7006,109.759839 23.3428,106.552639 24.5818182,103.556614 L24.5818182,103.582982 C24.5818182,104.623091 25.4284727,105.466385 26.4727273,105.466385 L34.0363636,105.466385 C35.0806182,105.466385 35.9272727,104.623091 35.9272727,103.582982 L35.9272727,96.0493673 L59.6014545,96.0493673 L60.6906182,97.4054179 C64.2393818,101.835183 66.1752,107.332838 66.1818182,113 L69.9636364,113 C69.9553636,106.477773 67.7269273,100.15095 63.6423273,95.0530468 L62.1957818,93.2525129 L61.4696727,91.0828319 C59.7097091,85.8161291 59.8777636,80.0990574 61.9442909,74.9439462 L62.0501818,74.6802697 C64.3968,73.9480965 66.0423636,71.8445701 66.1818182,69.3992059 L66.1818182,69.3219864 L86.6773818,64.9487231 C90.1559455,64.1894761 92.6396545,61.127768 92.6545455,57.5808481 L92.6545455,37.6638547 C92.6545455,38.7039644 93.5012,39.5472584 94.5454545,39.5472584 L102.109091,39.5472584 C103.153345,39.5472584 104,38.7039644 104,37.6638547 L104,26.3634329 C104,25.3233233 103.153345,24.4800293 102.109091,24.4800293 Z M75.6363636,35.7804511 L71.8545455,35.7804511 L71.8545455,28.2468366 L75.6363636,28.2468366 L75.6363636,35.7804511 Z M7.56363636,101.699578 L3.78181818,101.699578 L3.78181818,94.1659637 L7.56363636,94.1659637 L7.56363636,101.699578 Z M22.2162909,95.254571 L22.3486545,96.0550175 L19.2097455,96.0550175 C18.1300364,94.5577116 17.0181818,90.6665997 17.0181818,80.9821383 C17.1748909,72.6864515 19.8079818,64.6252486 24.5818182,57.8256906 C24.5818182,57.8256906 24.5818182,69.2636009 24.5818182,69.2636009 C22.0877091,74.8912109 21.2594909,89.5327907 22.2162909,95.254571 Z M44.2472727,3.79837403 C53.2151455,3.19662657 61.1030727,9.65269879 62.2487273,18.5322406 L51.8997818,13.3773649 C51.5372,13.1958519 51.1249818,13.1362892 50.7255273,13.2078586 L28.7569455,17.068836 C30.3110364,9.66376379 36.6640182,4.22119814 44.2472727,3.79837403 Z M18.9090909,45.1258999 L18.9090909,18.8298184 C18.9166545,12.9966819 23.3761273,8.12596472 29.2069818,7.58213192 C26.1914545,11.2971456 24.5574727,15.9359687 24.5818182,20.713222 L24.5818182,22.6437108 C24.5818182,30.7235123 28.3352727,35.1476275 33.3253818,38.9973045 C29.3334364,42.5731817 24.2632,44.7287372 18.9090909,45.1258999 Z M28.3636364,22.6437108 L28.3636364,20.9637147 L50.7690182,17.0255177 L62.3905455,22.8132171 C62.3357091,29.8270122 59.1192727,33.3188426 52.4046545,38.0028674 C48.1839091,40.9299121 42.5797273,40.9299121 38.3589818,38.0028674 C31.5876364,33.2792911 28.3636364,29.7780437 28.3636364,22.6437108 Z M35.9272727,51.3580825 C37.1596727,51.0216596 38.4313091,50.8500344 39.7090909,50.8476802 C40.7533455,50.8476802 41.6,50.0043862 41.6,48.9642765 L41.6,43.4703881 C44.0780364,44.1272251 46.6856,44.1272251 49.1636364,43.4703881 L49.1636364,48.9642765 C49.1636364,50.0043862 50.0102909,50.8476802 51.0545455,50.8476802 C52.3323273,50.8500344 53.6039636,51.0216596 54.8363636,51.3580825 L54.8363636,54.3715283 L45.3818182,56.3961873 L35.9272727,54.3715283 L35.9272727,51.3580825 Z M25.6388364,90.611981 C25.5227818,84.9806042 26.0115818,79.3529941 27.0967273,73.8252045 C27.5893091,74.164688 28.1197091,74.445786 28.6775273,74.6633191 C30.5838,79.7233184 30.6660545,85.2854801 28.9101091,90.3991564 L26.4727273,90.3991564 C26.1817636,90.4036295 25.896,90.4766114 25.6388364,90.611981 Z M32.1454545,101.699578 L28.3636364,101.699578 L28.3636364,94.1659637 L32.1454545,94.1659637 L32.1454545,101.699578 Z M35.9272727,92.2825601 C35.9272727,91.2424504 35.0806182,90.3991564 34.0363636,90.3991564 L32.9018182,90.3991564 C34.333,85.4778227 34.333,80.2532611 32.9018182,75.3319274 L57.7861818,75.3319274 C56.0106182,80.8491229 56.0444182,86.7858466 57.8826182,92.2825601 L35.9272727,92.2825601 Z M62.4,69.3992059 C62.4,70.4218941 60.7832727,71.5651201 58.6181818,71.5651201 L32.1454545,71.5651201 C29.9803636,71.5651201 28.3636364,70.4218941 28.3636364,69.3992059 L28.3636364,53.1491994 C29.5910727,52.6444472 30.8553818,52.2333944 32.1454545,51.9193368 L32.1454545,55.8989687 C32.1452182,56.7869935 32.7675636,57.5544805 33.6392727,57.7409374 L44.9847273,60.1724115 C45.2463818,60.2293845 45.5172545,60.2293845 45.7789091,60.1724115 L57.1243636,57.7409374 C57.9960727,57.5544805 58.6184182,56.7869935 58.6181818,55.8989687 L58.6181818,51.9174534 C59.9082545,52.231511 61.1725636,52.6425638 62.4,53.147316 L62.4,69.3992059 Z M85.8832,61.2647856 L66.1818182,65.4685425 L66.1818182,56.497891 L78.0189091,56.497891 C81.9531818,56.5098977 85.2353273,53.5065752 85.5560727,49.6008669 L86.8608,30.1302402 L88.8727273,30.1302402 L88.8727273,57.5808481 L88.8727273,57.5808481 C88.8658727,59.3547789 87.6233091,60.8862215 85.8832,61.2647856 Z M100.218182,35.7804511 L96.4363636,35.7804511 L96.4363636,28.2468366 L100.218182,28.2468366 L100.218182,35.7804511 Z" id="Shape"></path> </g> </g> </svg> 